<svg width="26" height="24" viewBox="0 0 26 24" fill="none" xmlns="http://www.w3.org/2000/svg">
<path d="M25.8339 16.8033V15.4709C25.8339 15.3476 25.7149 15.2583 25.598 15.2923L19.3058 17.1114C19.2718 17.1199 19.242 17.139 19.2187 17.1645C18.5446 17.9091 17.9718 18.4087 17.8202 18.5409L17.8098 18.55C17.4188 18.8815 16.9343 19.0622 16.4243 19.0622H14.1462V16.7395H15.9568C16.0035 16.7395 16.0481 16.7225 16.0821 16.6928L16.3159 16.4781C16.4157 16.3867 16.5347 16.2762 16.6771 16.1338C16.6891 16.1219 16.7013 16.1098 16.7136 16.0975C16.7884 16.0229 16.8685 15.9431 16.947 15.8555C17.0405 15.7641 17.1319 15.6621 17.2169 15.5622C17.3593 15.4092 17.4953 15.2498 17.6376 15.082C17.7396 14.9715 17.8332 14.8461 17.9245 14.7207C18.0265 14.6017 18.1264 14.4679 18.2199 14.3404C18.2545 14.2895 18.2914 14.2381 18.329 14.1855C18.3653 14.1349 18.4023 14.0832 18.4388 14.0301C18.5068 13.9281 18.5748 13.8197 18.6321 13.7177C18.8107 13.4415 18.9616 13.146 19.0891 12.8507C19.1475 12.7244 19.1942 12.5914 19.2396 12.4621C19.2454 12.4456 19.2512 12.4293 19.2569 12.4129C19.3079 12.262 19.3504 12.1197 19.3823 11.9688C19.4588 11.6139 19.4758 11.2611 19.4418 10.9084C19.4333 10.7979 19.4248 10.6895 19.3993 10.5875V10.5705C19.3908 10.4983 19.3738 10.4175 19.3504 10.3432C19.2739 9.9989 19.1549 9.65464 19.004 9.31676C18.9531 9.19138 18.8935 9.06387 18.8362 8.94699C18.7002 8.69415 18.5578 8.44126 18.3963 8.19687C18.3638 8.1452 18.328 8.09285 18.2922 8.04059C18.2647 8.00043 18.2373 7.96033 18.2114 7.92063C18.109 7.76273 17.9939 7.61052 17.8823 7.46284C17.8572 7.42963 17.8322 7.39665 17.8077 7.36388C17.7417 7.27735 17.6696 7.19081 17.597 7.1037C17.5572 7.05604 17.5174 7.0082 17.4783 6.96009C17.3678 6.8262 17.2594 6.6987 17.1489 6.57336C16.7536 6.1271 16.3393 5.72331 15.9695 5.3791C15.9015 5.31107 15.8271 5.24309 15.7506 5.17718C15.4637 4.91583 15.2024 4.68845 14.9835 4.51205C14.9175 4.46132 14.8584 4.41136 14.8034 4.36485C14.7662 4.33343 14.7309 4.30359 14.6966 4.27616C14.6292 4.22595 14.5708 4.18147 14.522 4.14427C14.4923 4.12168 14.4662 4.10177 14.4437 4.08491C14.4267 4.07218 14.4076 4.06367 14.3884 4.05729L14.1462 3.98931V1.98329C14.1462 1.65603 14.0144 1.36278 13.8041 1.14814C13.5937 0.933488 13.3005 0.801758 12.9775 0.801758C12.3315 0.801758 11.8087 1.33089 11.8087 1.98329V3.33479L11.6876 3.30078L11.3582 3.20729L11.0586 3.12442L11.0558 3.12363C11.0558 3.12363 11.0525 3.1223 11.05 3.1223H11.0437L8.76986 2.50603C8.67003 2.4784 8.585 2.58678 8.63602 2.67816L8.9994 3.34968C9.02006 3.40137 9.04624 3.45305 9.07315 3.50617C9.09049 3.5404 9.10813 3.57522 9.12479 3.61103C9.18426 3.73007 9.24379 3.85542 9.30115 3.9808C9.35212 4.0913 9.40314 4.19968 9.46266 4.31868C9.48772 4.37474 9.51327 4.43148 9.53918 4.48903C9.63409 4.69983 9.73389 4.92149 9.83239 5.16022L9.83322 5.1622C9.91793 5.36341 10.0027 5.56465 10.0768 5.77433C10.2808 6.30346 10.4742 6.86872 10.642 7.44886C10.6838 7.57853 10.7171 7.70404 10.751 7.83122C10.7653 7.88536 10.7798 7.9398 10.795 7.995L10.8184 8.09699C10.8864 8.36689 10.9459 8.63462 10.9884 8.90452C11.0224 9.08938 11.0543 9.26575 11.0713 9.44427C11.0968 9.64614 11.1223 9.84801 11.1308 10.0499C11.1478 10.2348 11.1563 10.4282 11.1563 10.613C11.1563 11.0848 11.1138 11.5395 11.0139 11.9688C11.0077 11.9917 11.0015 12.015 10.9952 12.0384C10.9672 12.143 10.9381 12.2514 10.9034 12.3556C10.8719 12.4673 10.8311 12.5791 10.7887 12.6952C10.7739 12.7358 10.7589 12.777 10.744 12.8188C10.7416 12.8254 10.7391 12.832 10.7367 12.8386C10.7051 12.9237 10.673 13.0103 10.6335 13.0951C10.4232 13.6008 10.1618 14.1045 9.89191 14.5762C9.49663 15.2753 9.09928 15.8895 8.82088 16.2847C8.80394 16.3101 8.78742 16.3343 8.7715 16.3576C8.75147 16.3869 8.7324 16.4148 8.71466 16.442C8.62751 16.5653 8.71677 16.7395 8.86762 16.7395H11.8087V19.0622H8.83366C8.03463 19.0622 7.29513 18.6095 6.93809 17.8849C6.75322 17.5215 6.68097 17.122 6.72348 16.731C6.7341 16.6141 6.64696 16.5036 6.52796 16.5036H0.518406C0.416368 16.5036 0.333496 16.5865 0.333496 16.6885V16.8118C0.333496 20.6453 3.42967 23.7521 7.2505 23.7521H18.0308C20.0515 23.7521 21.199 21.9106 22.3268 20.1007C22.6412 19.5962 22.954 19.0941 23.2838 18.635C23.8767 17.8105 25.3026 17.156 25.7192 16.9775C25.7871 16.9478 25.8339 16.8797 25.8339 16.8033Z" fill="#2081E2"/>
<path d="M1.94008 13.7665L1.85082 13.9067C1.77222 14.0279 1.85933 14.1894 2.00806 14.1894H7.54167C7.6033 14.1894 7.66066 14.1596 7.69468 14.1087C7.76693 13.9982 7.83491 13.8834 7.89655 13.7665C8.3747 12.9632 8.79968 12.0941 8.9548 11.4523C9.31819 9.89258 8.54256 7.38717 7.64366 5.37261C7.58418 5.23876 7.39927 5.22598 7.32067 5.34926L1.94008 13.7665Z" fill="#2081E2"/>
</svg>
